<?xml version="1.0" ?><svg baseProfile="tiny" id="Layer_12" version="1.1" viewBox="0 0 185 185" xml:space="preserve" xmlns="http://www.w3.org/2000/svg" xmlns:xlink="http://www.w3.org/1999/xlink"><g><g><path d="M94.3,98.4c10.7-2.5,20.3-1.8,28.6,0.2l1.3-68.4c0,0-10.5,3.7-33,3.6C71.7,33.6,61,30.7,61,30.7l1.2,68.1    C77.3,102,81.8,101.3,94.3,98.4z" fill="#FCAB33"/><path d="M85.7,138.6c12.2-0.4,23.3-8.2,36.7-9.1l0.5-26c-9-1.6-21.3-2.6-35.5,0.9c-8.8,2.2-17.5,2.4-25,1.5    l0.5,28.1C69.1,137.4,76.7,138.9,85.7,138.6z" fill="#FFFBDC"/><path d="M87.3,104.4c14.2-3.5,26.5-2.6,35.5-0.9l0.1-4.9c-8.3-2-17.8-2.7-28.6-0.2c-12.5,2.9-17,3.6-32.2,0.4    l0.1,7.1C69.9,106.8,78.5,106.6,87.3,104.4z" fill="#FCA82C"/><path d="M89.7,141.1c-9.9,1.7-19.2,0.1-26.8-2.5l0.1,8c0,0,10.3,5.4,32.3,4.9c20.8-0.5,26.7-4.9,26.7-4.9l0.2-10.5    C114.4,137.1,103,138.8,89.7,141.1z" fill="#BA272D"/><path d="M89.7,141.1c13.3-2.3,24.7-4,32.5-5.1l0.1-6.5c-13.4,0.9-24.4,8.7-36.7,9.1c-9,0.3-16.6-1.2-22.9-4.6    l0.1,4.5C70.5,141.1,79.8,142.7,89.7,141.1z" fill="#BA2627"/></g><g><g><path d="M93.5,175.3c-21.2,0-34.8-6-34.9-6c-0.2-0.1-0.3-0.3-0.3-0.5V16.8c0-0.3,0.2-0.6,0.6-0.6     c0.3,0,0.6,0.2,0.6,0.6v151.5c2.2,0.9,15,5.8,34.1,5.8c19.1,0,30.2-4.9,32.1-5.8V16.8c0-0.3,0.2-0.6,0.6-0.6     c0.3,0,0.6,0.2,0.6,0.6v151.9c0,0.2-0.1,0.4-0.3,0.5C126.3,169.3,114.7,175.3,93.5,175.3z" fill="#4D4D4D"/></g><g><path d="M92.5,22.7c-13.7,0-34.1-1.5-34.1-5.7s20.4-5.7,34.1-5.7c13.7,0,34.1,1.5,34.1,5.7S106.2,22.7,92.5,22.7z      M92.5,12.4c-20.5,0-33,2.7-33,4.6c0,1.9,12.6,4.6,33,4.6c20.5,0,33-2.7,33-4.6C125.5,15.1,112.9,12.4,92.5,12.4z" fill="#4D4D4D"/></g><g><path d="M92.7,157.3c-16.2,0-34.4-3.3-34.4-7.8c0-0.3,0.2-0.6,0.6-0.6c0.3,0,0.6,0.2,0.6,0.6     c0,2.9,15.7,6.7,33.3,6.7c18.7,0,32.8-4.2,32.8-6.8c0-0.3,0.2-0.6,0.6-0.6c0.3,0,0.6,0.2,0.6,0.6     C126.6,153.9,108.7,157.3,92.7,157.3z" fill="#4D4D4D"/></g><g><g><path d="M94.8,119.5c-0.1,0-0.2,0-0.2-0.1c-0.1-0.1-0.2-0.2-0.3-0.3l-7.8-23.6c0-0.1,0-0.3,0-0.4      c0.1-0.1,0.2-0.2,0.3-0.3l23.3-7.7c0.3-0.1,0.6,0.1,0.6,0.3l7.8,23.6c0.1,0.3-0.1,0.6-0.3,0.6l-23.3,7.7      C94.9,119.5,94.8,119.5,94.8,119.5z M87.7,95.7l7.4,22.7l22.4-7.4L110,88.3L87.7,95.7z" fill="#4D4D4D"/></g><g><path d="M91.9,93.8c-0.1,0-0.2,0-0.2-0.1L69.8,82.7c-0.1-0.1-0.2-0.2-0.3-0.3c0-0.1,0-0.3,0-0.4l11.2-22.2      c0.1-0.3,0.4-0.4,0.7-0.2l21.9,11.1c0.3,0.1,0.4,0.4,0.2,0.7L92.4,93.5c-0.1,0.1-0.2,0.2-0.3,0.3C92,93.8,92,93.8,91.9,93.8z       M70.7,82l21,10.6l10.8-21.3l-21-10.6L70.7,82z" fill="#4D4D4D"/></g><g><path d="M76.2,103.6c-1.7,0-3-1.3-3-3c0-1.7,1.3-3,3-3c1.7,0,3,1.3,3,3C79.2,102.3,77.8,103.6,76.2,103.6z       M76.2,98.6c-1.1,0-2,0.9-2,2c0,1.1,0.9,2,2,2c1.1,0,2-0.9,2-2C78.2,99.5,77.3,98.6,76.2,98.6z" fill="#4D4D4D"/></g><g><path d="M85.9,115.1c-1.2,0-2.1-0.9-2.1-2.1c0-1.2,0.9-2.1,2.1-2.1c1.2,0,2.1,0.9,2.1,2.1      C88,114.2,87.1,115.1,85.9,115.1z M85.9,112c-0.6,0-1.1,0.5-1.1,1.1c0,0.6,0.5,1.1,1.1,1.1c0.6,0,1.1-0.5,1.1-1.1      C87,112.4,86.5,112,85.9,112z" fill="#4D4D4D"/></g><g><path d="M104.9,85.9c-1.5,0-2.7-1.2-2.7-2.7c0-1.5,1.2-2.7,2.7-2.7s2.7,1.2,2.7,2.7      C107.5,84.7,106.3,85.9,104.9,85.9z M104.9,81.5c-0.9,0-1.7,0.7-1.7,1.7s0.7,1.7,1.7,1.7c0.9,0,1.7-0.7,1.7-1.7      S105.8,81.5,104.9,81.5z" fill="#4D4D4D"/></g></g></g></g></svg>