<?xml version="1.0" ?><svg baseProfile="tiny" id="Layer_12" version="1.1" viewBox="0 0 185 185" xml:space="preserve" xmlns="http://www.w3.org/2000/svg" xmlns:xlink="http://www.w3.org/1999/xlink"><g><g><path d="M138.1,47.8c-14.3,0.9-31,1.5-48.8,1.5c-18,0-34.9-0.6-49.3-1.5c1.4,4,4.4,10.4,10.8,13.9    c1.1,0.6,2,1.1,3,1.5c5.3-2.2,10.9-3.5,17.5-3c8,0.7,34.6,6.3,45.1,6.2c2.5-0.9,5.9-2,10.9-4.8C133.6,58.2,136.7,51.8,138.1,47.8z    " fill="#C9EE5D"/><path d="M56.8,64.7c5.3,2.2,7.9,2.3,9.9,5.1c1.6,2.2,2.4,8.2,3.9,13.9c3.2-0.1,6.6-0.3,10-0.7c8.3-1,19-3,25.7-0.7    c0.5,0.2,0.9,0.3,1.4,0.5c1.3-5.2,2.1-10.4,3.4-12.6c-10.4-2.7-21.4-6.5-30.9-7.8C68.1,60.6,64,61.7,56.8,64.7z" fill="#FDCA4B"/><path d="M71.3,60.3c-6.7-0.6-12.3,0.8-17.5,3c1.1,0.6,2.2,1,3.1,1.4c7.1-3,11.2-4.1,23.4-2.4    c9.5,1.3,20.4,5.2,30.9,7.8c0.1-0.1,0.1-0.2,0.2-0.3c1.3-1.8,2.8-2.5,5.1-3.3C105.9,66.6,79.3,61,71.3,60.3z" fill="#C7BD1B"/><path d="M91.6,84.5c-6.6,2.7-13,4.3-18.9,5.4c0.7,1.5,1.4,2.8,2.4,3.8c7.6,8.6,20.3,8.6,27.9,0    c2.1-2.3,3.4-6,4.4-9.8C102.8,82.7,97.2,82.3,91.6,84.5z" fill="#FFFBDC"/><path d="M80.6,83c-3.4,0.4-6.8,0.6-10,0.7c0.6,2.2,1.3,4.4,2.1,6.2c5.9-1.1,12.3-2.8,18.9-5.4    c5.6-2.2,11.2-1.8,15.8-0.5c0.1-0.4,0.2-0.8,0.3-1.2c-0.5-0.1-1-0.3-1.4-0.5C99.6,80,88.9,82,80.6,83z" fill="#FDC741"/></g><g><g><g><path d="M39.9,17.2c-1.2,0-2.4-0.4-3.5-1.2c-2.4-1.9-2.9-5.4-0.9-7.9c1.9-2.4,5.4-2.9,7.9-0.9l0,0      c1.2,0.9,1.9,2.2,2.1,3.7c0.2,1.5-0.2,3-1.2,4.1C43.2,16.5,41.6,17.2,39.9,17.2z M39.9,7.2c-0.2,0-0.4,0-0.5,0      c-1.2,0.1-2.2,0.7-2.9,1.7c-1.5,1.9-1.2,4.7,0.7,6.2c1.9,1.5,4.7,1.2,6.2-0.7c0.7-0.9,1-2.1,0.9-3.2c-0.1-1.2-0.7-2.2-1.7-2.9h0      C41.9,7.5,40.9,7.2,39.9,7.2z" fill="#4D4D4D"/></g><g><path d="M100.1,86.2c-0.2,0-0.3-0.1-0.5-0.2L39.4,11.5c-0.2-0.3-0.2-0.6,0.1-0.8c0.3-0.2,0.6-0.2,0.8,0.1      l60.2,74.4c0.2,0.3,0.2,0.6-0.1,0.8C100.4,86.1,100.2,86.2,100.1,86.2z" fill="#4D4D4D"/></g></g><g><g><path d="M89.2,40.5c-14.3,0-27.8-0.3-38-0.9c-16.3-0.9-16.3-2-16.3-2.7c0-0.8,0-1.8,16.3-2.7      c10.1-0.6,23.6-0.9,38-0.9c14.3,0,27.8,0.3,38,0.9c16.3,0.9,16.3,2,16.3,2.7c0,0.8,0,1.8-16.3,2.7      C117,40.2,103.5,40.5,89.2,40.5z M36.6,36.9c3.8,1.2,24.6,2.4,52.6,2.4c28,0,48.8-1.2,52.6-2.4c-3.8-1.2-24.6-2.4-52.6-2.4      C61.2,34.4,40.4,35.6,36.6,36.9z M142.3,37.1L142.3,37.1L142.3,37.1z" fill="#4D4D4D"/></g><g><path d="M89.2,178.7c-13.4,0-26.9-2-26.9-5.7c0-3.5,11.2-4.8,16.2-5.3c0.6-0.5,2.5-2.3,4.3-5.1      c0.3-0.5,0.6-1.1,0.9-2c1.2-6.1,2.5-28.1,1.7-41.7c-0.7-11-3.6-13-6.7-15.1c-0.8-0.5-1.5-1-2.3-1.7c-3.8-3.4-6.4-6.7-8.2-10.4      c-0.9-1.9-1.7-5.4-2.6-9.2C64.9,79,64,75.3,63.1,73c-1-2.3-3.7-3.5-7.1-4.9c-3-1.3-6.7-2.8-10.2-5.7c-7.7-6.1-10.9-24.9-11-25.7      c-0.1-0.3,0.2-0.6,0.5-0.7c0.3-0.1,0.6,0.2,0.7,0.5c0,0.2,3.3,19.1,10.6,24.9c3.4,2.7,6.9,4.2,10,5.5c3.7,1.5,6.6,2.8,7.7,5.6      c1,2.4,1.8,6.1,2.7,9.7c0.8,3.7,1.7,7.1,2.5,8.9c1.7,3.5,4.2,6.7,7.9,10c0.7,0.6,1.4,1.1,2.2,1.6c3.2,2.1,6.5,4.4,7.2,16      c0.8,13.8-0.5,36-1.7,42.1c0,0,0,0.1,0,0.1c-0.4,0.9-0.7,1.6-1.1,2.2c-2,3.3-4.3,5.2-4.7,5.6c-0.1,0.1-0.2,0.1-0.3,0.1      c-11.1,0.9-15.3,3-15.3,4.1c0,1.9,9.8,4.5,25.7,4.5s25.7-2.6,25.7-4.5c0-1.1-4.3-3.2-15.9-4.1c-0.1,0-0.3-0.1-0.3-0.1      c-0.9-0.8-2.6-2.5-4.3-5.4c-0.4-0.6-0.7-1.4-1-2.3c-1.2-6.4-2.4-28.1-1.6-41.9c0.7-11.7,4-13.9,7.2-16c0.7-0.5,1.4-1,2.1-1.6      c3.7-3.3,6.2-6.4,7.9-10c0.8-1.8,1.6-5.3,2.5-8.9c0.8-3.6,1.7-7.3,2.7-9.7c1.1-2.8,4.1-4,7.7-5.6c3.1-1.3,6.5-2.7,10-5.5      c7.3-5.8,10.6-24.8,10.6-24.9c0.1-0.3,0.4-0.5,0.7-0.5c0.3,0.1,0.5,0.4,0.5,0.7c-0.1,0.8-3.4,19.5-11,25.7      c-3.6,2.8-7.3,4.4-10.2,5.7c-3.4,1.4-6.1,2.6-7.1,4.9c-0.9,2.3-1.8,6-2.6,9.6c-0.9,3.7-1.7,7.3-2.6,9.2c-1.7,3.7-4.3,7-8.1,10.4      c-0.7,0.6-1.5,1.2-2.2,1.7c-3.1,2.1-6,4-6.7,15.1c-0.8,13.7,0.4,35.2,1.5,41.5c0.3,0.8,0.6,1.5,0.9,2c1.5,2.7,3.1,4.3,3.9,5      c5.2,0.4,16.8,1.8,16.8,5.3C116.1,176.7,102.5,178.7,89.2,178.7z M84.3,160.8L84.3,160.8L84.3,160.8z" fill="#4D4D4D"/></g></g><g><g><path d="M159.3,51.6c-0.1,0-0.3,0-0.4-0.1L124.5,22c-0.3-0.2-0.3-0.6-0.1-0.8c8.3-9.8,23-10.9,32.8-2.6      c4.7,4,7.6,9.7,8.1,15.9c0.5,6.2-1.5,12.2-5.5,16.9C159.7,51.5,159.5,51.6,159.3,51.6z M125.7,21.5l33.6,28.6      c3.6-4.4,5.3-9.9,4.8-15.6c-0.5-5.9-3.2-11.2-7.7-15C147.3,11.7,133.7,12.7,125.7,21.5z" fill="#4D4D4D"/></g><g><path d="M156,48.7c-0.1,0-0.3,0-0.4-0.1c-0.3-0.2-0.3-0.6-0.1-0.8c6.3-7.4,5.4-18.6-2-24.9      c-3.6-3.1-8.2-4.6-12.9-4.2c-4.7,0.4-9,2.6-12.1,6.1c-0.2,0.3-0.6,0.3-0.8,0.1c-0.3-0.2-0.3-0.6-0.1-0.8      c3.3-3.8,7.8-6.2,12.9-6.6c5-0.4,9.9,1.2,13.7,4.5c7.9,6.8,8.9,18.7,2.1,26.6C156.3,48.7,156.2,48.7,156,48.7z" fill="#4D4D4D"/></g><g><path d="M142.2,36.8c-0.1,0-0.3,0-0.4-0.1c-0.3-0.2-0.3-0.6-0.1-0.8l11.7-13.7c0.2-0.3,0.6-0.3,0.8-0.1      c0.3,0.2,0.3,0.6,0.1,0.8l-11.7,13.7C142.5,36.8,142.3,36.8,142.2,36.8z" fill="#4D4D4D"/></g><g><path d="M142.4,36.8c-0.3,0-0.6-0.2-0.6-0.6c0-0.3,0.2-0.6,0.6-0.6l18-1.4c0.3,0,0.6,0.2,0.6,0.6      c0,0.3-0.2,0.6-0.6,0.6L142.4,36.8C142.4,36.8,142.4,36.8,142.4,36.8z" fill="#4D4D4D"/></g><g><path d="M142.3,36.6c-0.3,0-0.6-0.2-0.6-0.6l-1.4-18c0-0.3,0.2-0.6,0.6-0.6c0.3,0,0.6,0.2,0.6,0.6l1.4,18      C143,36.3,142.7,36.6,142.3,36.6C142.4,36.6,142.3,36.6,142.3,36.6z" fill="#4D4D4D"/></g></g></g></g></svg>