<?xml version="1.0" ?><svg baseProfile="tiny" id="Layer_12" version="1.1" viewBox="0 0 185 185" xml:space="preserve" xmlns="http://www.w3.org/2000/svg" xmlns:xlink="http://www.w3.org/1999/xlink"><g><g><path d="M90.2,72.1c15.2,1.7,24.3,1.2,29.7,0.3c-1.4-6.2-1.4-9.4-1.1-15.5c0.2-3.6,0.9-6.9,2.1-10.7    c-7.8,1.5-17.6,2.8-27.8,2.8c-11.8,0-22.3-0.6-30.5-2c0.8,2.8,1.2,6.1,1.4,9.9c0.3,5.9,0.3,9.1-1,14.8    C70,70.9,78.6,70.8,90.2,72.1z" fill="#CE3222"/><path d="M75.2,81.7c14,1.5,29.6,10,40.3,6.1c2.8-1,5.3-2.2,7.5-3.5c-1.1-4.1-2-7.3-2.7-9.9    c-6.1,0.8-13.4,0.8-22.1-0.8c-15.4-2.7-23.4-2.8-35.5-0.4c-0.5,2.1-1.2,4.6-2,7.6C64.3,80.7,68.9,81,75.2,81.7z" fill="#FAAB47"/><path d="M98.2,73.6c8.8,1.5,16.1,1.6,22.1,0.8c-0.2-0.7-0.3-1.4-0.5-2c-5.4,0.9-14.5,1.4-29.7-0.3    C78.6,70.8,70,70.9,63,71.7c-0.1,0.5-0.2,1-0.3,1.5C74.8,70.9,82.8,70.9,98.2,73.6z" fill="#CA2209"/><path d="M75.5,113c14.3-1.8,20.8-5.5,32.8-7.3c6.1-0.9,13.2-0.8,19.2-0.3c-0.4-5.5-1.7-11.4-3.6-18.1    c-6.3,2.1-17.8,3.5-37.7-1.4c-11.1-2.7-20.2-2-26.8-0.6c-2.9,10.5-4.9,19-4,27C61.3,113.8,63.7,114.4,75.5,113z" fill="#F6F4CB"/><path d="M86.2,86c19.8,4.9,31.4,3.5,37.7,1.4c-0.2-0.8-0.5-1.7-0.7-2.6c-0.1-0.2-0.1-0.3-0.1-0.5    c-2.2,1.3-4.7,2.5-7.5,3.5c-10.8,3.8-26.3-4.6-40.3-6.1c-6.3-0.7-10.9-1-14.5-0.8c-0.3,1.2-0.7,2.5-1.1,4    c-0.1,0.2-0.1,0.4-0.2,0.6C66,84,75.1,83.3,86.2,86z" fill="#F1A439"/><path d="M123.7,124.1c2.6-5,3.8-9.8,3.9-15c-7.5-2.1-22.7-3.6-48.6,5.2c-8.8,3-17,2.4-23.1,1.1c0.6,3,1.7,6,3.4,9    c1.1,2,2.3,3.7,3.6,5.3c6.2-0.2,13-0.8,19.3-1.8C94.9,126,113,123,123.7,124.1z" fill="#FFE7A7"/><path d="M79,114.3c25.8-8.8,41.1-7.3,48.6-5.2c0-1.2,0-2.4-0.1-3.7c-6-0.5-13.2-0.6-19.2,0.3    c-12,1.8-18.5,5.5-32.8,7.3c-11.8,1.4-14.2,0.8-20-0.5c0.1,1,0.3,2,0.5,3C62,116.7,70.2,117.3,79,114.3z" fill="#F6DD85"/><path d="M93,141.9c0.8,0,1.6-0.1,2.5-0.2c9.6-1.2,20-4.8,26.7-15c-10.3-1.6-23.8-1.9-37.9,3    c-6.5,2.2-12.2,3.5-17.1,4.2c6,4.8,13.3,6.9,20.2,7.8C89.3,142,91.2,142,93,141.9z" fill="#C9EE5D"/><path d="M122.1,126.8c0.5-0.7,0.9-1.5,1.4-2.3c0.1-0.1,0.1-0.2,0.2-0.3C113,123,94.9,126,82.2,128    c-6.3,1-13.1,1.6-19.3,1.8c1.3,1.6,2.7,3,4.2,4.2c4.9-0.7,10.6-1.9,17.1-4.2C98.4,124.9,111.8,125.2,122.1,126.8z" fill="#C9D83D"/></g><g><g><g><path d="M91.3,38.5c-1.5,0-35.8,0-35.8-3.8c0-3.8,34.3-3.8,35.8-3.8c1.5,0,35.8,0,35.8,3.8      C127.1,38.4,92.8,38.5,91.3,38.5z M56.6,34.6c1.2,1.2,13.9,2.8,34.7,2.8c20.8,0,33.5-1.6,34.7-2.8c-1.2-1.2-13.9-2.8-34.7-2.8      C70.5,31.8,57.8,33.5,56.6,34.6z M126.1,34.7L126.1,34.7L126.1,34.7z" fill="#4D4D4D"/></g><g><path d="M91.9,178.3c-12.1,0-24.9-2-24.9-5.7c0-3.6,11.6-5,15.4-5.3c2.1-1.7,3.5-3.1,3.8-6      c0.3-3.4-0.6-6.6-1.6-9.5c-1-3-1.7-4.3-2.5-5.3c-0.2-0.2-0.1-0.5,0.1-0.7c0.2-0.2,0.5-0.1,0.7,0.1c0.8,1.1,1.6,2.5,2.7,5.6      c1,3,2,6.3,1.7,9.9c-0.3,3.4-2,4.9-4.3,6.8c-0.1,0.1-0.2,0.1-0.3,0.1c-9.6,0.8-14.6,2.8-14.6,4.3c0,2.2,9.8,4.7,23.9,4.7      c14.1,0,23.9-2.5,23.9-4.7c0-1.5-5.1-3.5-14.8-4.3c-0.1,0-0.2-0.1-0.3-0.1c-5.4-4.9-4.3-10.4-3.1-16.3c0.5-2.6,1.3-4.6,2.3-5.9      c0.2-0.2,0.5-0.3,0.7-0.1c0.2,0.2,0.3,0.5,0.1,0.7c-0.9,1.2-1.6,3-2.1,5.5c-1.2,5.8-2.2,10.8,2.6,15.3      c3.9,0.3,15.5,1.7,15.5,5.3C116.8,176.3,104,178.3,91.9,178.3z M82.5,167.8L82.5,167.8L82.5,167.8z" fill="#4D4D4D"/></g><g><path d="M91,147.4c-1.4,0-2.9-0.1-4.3-0.3c-15.2-1.9-25.6-8.2-31.7-19.2c-7.5-13.5-4.6-26.7,0.3-43.8      c5.1-17.8,5.4-20.7,4.9-30.4c-0.2-4.1-1.2-10.5-4.4-18.2c-0.1-0.2-0.2-0.4-0.2-0.4c-0.1-0.3,0.1-0.6,0.3-0.6      c0.3-0.1,0.6,0.1,0.6,0.3c0,0.1,0.1,0.2,0.1,0.4c3.3,7.8,4.2,14.4,4.4,18.5c0.5,9.9,0.3,12.8-4.9,30.8      c-4.9,16.8-7.7,29.8-0.4,43c5.9,10.7,16.1,16.8,31,18.7c2,0.3,4.1,0.3,6.3,0.2c1.1,0,1.9-0.1,2.7-0.2c14.9-1.9,25-8,31-18.7      c7.3-13.2,4.5-26.1-0.4-43c-5.2-18-5.5-20.9-4.9-30.8c0.2-4.2,1.2-10.7,4.4-18.5c0.1-0.2,0.1-0.3,0.1-0.4      c0.1-0.3,0.4-0.4,0.6-0.3c0.3,0.1,0.4,0.4,0.3,0.6c0,0.1-0.1,0.2-0.2,0.4c-3.2,7.7-4.1,14.1-4.4,18.2      c-0.5,9.8-0.2,12.6,4.9,30.4c4.9,17.1,7.8,30.2,0.3,43.8c-6.1,11-16.5,17.3-31.7,19.2c-0.8,0.1-1.7,0.2-2.8,0.2      C92.5,147.4,91.7,147.4,91,147.4z" fill="#4D4D4D"/></g></g><g><g><path d="M145.4,45.2c-0.1,0-0.2,0-0.3-0.1l-41.1-23.8c-0.1-0.1-0.2-0.2-0.3-0.3c0-0.1,0-0.3,0.1-0.4      c3.3-5.6,8.5-9.6,14.8-11.3c6.3-1.7,12.8-0.8,18.4,2.5c5.6,3.3,9.6,8.5,11.3,14.8c1.7,6.3,0.8,12.8-2.5,18.4      C145.8,45.1,145.6,45.2,145.4,45.2z M105.1,20.6l40.1,23.3c2.9-5.2,3.6-11.3,2.1-17.1c-1.6-6-5.4-11-10.8-14.1      c-5.4-3.1-11.6-3.9-17.6-2.4C113.1,11.9,108.2,15.5,105.1,20.6z" fill="#4D4D4D"/></g><g><path d="M141.4,42.9c-0.1,0-0.2,0-0.3-0.1c-0.3-0.2-0.4-0.5-0.2-0.8c5.1-8.9,2.1-20.3-6.7-25.4      c-4.3-2.5-9.3-3.2-14.1-1.9c-4.8,1.3-8.8,4.3-11.3,8.6c-0.2,0.3-0.5,0.4-0.8,0.2c-0.3-0.2-0.4-0.5-0.2-0.8      c2.6-4.6,6.9-7.8,12-9.1c5.1-1.4,10.4-0.6,14.9,2c9.4,5.5,12.6,17.5,7.1,26.9C141.8,42.8,141.6,42.9,141.4,42.9z" fill="#4D4D4D"/></g><g><path d="M125,33.3c-0.1,0-0.2,0-0.3-0.1c-0.3-0.2-0.4-0.5-0.2-0.8l9.5-16.3c0.2-0.3,0.5-0.4,0.8-0.2      c0.3,0.2,0.4,0.5,0.2,0.8L125.4,33C125.3,33.2,125.2,33.3,125,33.3z" fill="#4D4D4D"/></g><g><path d="M125.1,33.2c-0.2,0-0.5-0.2-0.5-0.4c-0.1-0.3,0.1-0.6,0.4-0.7l18.2-4.8c0.3-0.1,0.6,0.1,0.7,0.4      c0.1,0.3-0.1,0.6-0.4,0.7l-18.2,4.8C125.2,33.2,125.2,33.2,125.1,33.2z" fill="#4D4D4D"/></g><g><path d="M125.1,33c-0.2,0-0.5-0.2-0.5-0.4l-4.8-18.2c-0.1-0.3,0.1-0.6,0.4-0.7c0.3-0.1,0.6,0.1,0.7,0.4l4.8,18.2      c0.1,0.3-0.1,0.6-0.4,0.7C125.2,33,125.1,33,125.1,33z" fill="#4D4D4D"/></g></g><g><g><path d="M93.4,139c-0.2,0-0.4-0.2-0.5-0.4l-25.6-128c-0.1-0.3,0.1-0.5,0.4-0.6c0.3-0.1,0.5,0.1,0.6,0.4l25.6,128      c0.1,0.3-0.1,0.5-0.4,0.6C93.4,139,93.4,139,93.4,139z" fill="#4D4D4D"/></g><g><path d="M99,137.9c-0.2,0-0.4-0.2-0.5-0.4L72.9,9.6C72.8,9.3,73,9,73.3,9c0.3-0.1,0.5,0.1,0.6,0.4l25.6,128      c0.1,0.3-0.1,0.5-0.4,0.6C99.1,137.9,99,137.9,99,137.9z" fill="#4D4D4D"/></g><g><path d="M69.2,11.3c-1.1,0-1.9-0.3-2.1-1c-0.1-0.3,0-0.9,0.9-1.4c0.5-0.3,1.3-0.6,2.1-0.7C71,8,71.8,8,72.4,8.1      c1,0.1,1.3,0.6,1.4,0.9l0,0c0.2,1-1.4,1.8-3,2.1C70.2,11.2,69.7,11.3,69.2,11.3z M68.2,10.1c0.3,0.1,1.1,0.3,2.4,0      c1.3-0.3,2-0.7,2.2-0.9c-0.3-0.1-1.1-0.3-2.4,0C69.1,9.5,68.4,9.9,68.2,10.1z M72.8,9.1L72.8,9.1L72.8,9.1L72.8,9.1z" fill="#4D4D4D"/></g><g><path d="M95,139.8c-1,0-1.9-0.3-2-1c-0.1-0.3,0.1-0.5,0.4-0.6c0.3-0.1,0.5,0.1,0.6,0.4c0.1,0.1,1,0.3,2.4,0      c1.4-0.3,2.1-0.8,2.2-1c-0.1-0.3,0.1-0.5,0.4-0.6c0.3-0.1,0.5,0.2,0.6,0.4c0.1,0.3,0,0.9-0.9,1.4c-0.5,0.3-1.3,0.6-2.1,0.7      C96,139.7,95.5,139.8,95,139.8z" fill="#4D4D4D"/></g></g></g></g></svg>